 <svg version="1.0" xmlns="http://www.w3.org/2000/svg"  width="300.000000pt" height="298.000000pt" viewBox="0 0 300.000000 298.000000"  preserveAspectRatio="xMidYMid meet">  <g transform="translate(0.000000,298.000000) scale(0.100000,-0.100000)" fill="#000000" stroke="none"> <path d="M1331 2939 c-45 -9 -80 -36 -96 -72 -8 -18 -21 -86 -29 -152 -14 -111 -17 -122 -44 -146 -43 -39 -141 -55 -229 -39 -74 14 -101 26 -178 76 -106 70 -135 61 -286 -91 -62 -63 -119 -125 -126 -137 -7 -13 -12 -41 -13 -63 0 -43 14 -67 117 -200 67 -85 68 -110 13 -189 -70 -99 -139 -145 -258 -169 -84 -18 -115 -35 -137 -77 -16 -30 -17 -62 -16 -289 l1 -103 38 -38 c35 -35 43 -37 132 -49 198 -24 217 -36 239 -146 18 -89 0 -186 -47 -264 -53 -85 -72 -123 -72 -145 0 -44 45 -107 149 -209 116 -112 143 -126 214 -113 18 3 60 28 93 54 106 85 148 112 171 112 64 0 187 -99 231 -186 11 -22 26 -69 33 -104 15 -82 31 -113 71 -142 30 -21 46 -23 172 -26 189 -5 222 1 267 48 35 36 37 43 48 142 15 128 26 170 48 190 31 26 83 38 169 38 97 0 151 -17 232 -73 109 -75 158 -60 309 95 107 109 123 135 123 196 -1 45 -7 55 -93 164 -83 106 -89 129 -51 198 54 100 160 172 281 192 76 13 127 51 143 106 15 57 13 316 -4 356 -25 60 -67 81 -191 95 -181 21 -206 44 -213 193 -5 106 11 164 70 251 78 115 65 159 -99 318 -151 147 -194 153 -324 47 -135 -111 -161 -118 -241 -67 -99 64 -158 155 -182 280 -23 124 -56 142 -258 143 -81 1 -160 -2 -177 -5z m329 -30 c0 -6 3 -8 8 -5 4 2 16 -2 27 -10 10 -8 15 -14 11 -14 -4 0 0 -7 8 -16 9 -8 18 -25 20 -37 2 -12 9 -44 16 -72 6 -27 12 -60 13 -72 1 -12 4 -20 6 -17 2 2 20 -20 40 -48 48 -69 138 -138 193 -148 34 -6 52 -4 88 13 25 12 53 31 63 44 10 12 27 25 39 29 12 3 37 22 55 42 31 33 36 34 85 30 48 -4 59 -10 107 -56 30 -29 59 -52 64 -52 6 0 8 -3 5 -6 -4 -3 12 -22 33 -41 22 -20 49 -50 61 -66 28 -39 32 -105 10 -139 -9 -14 -29 -44 -45 -67 -15 -23 -35 -69 -43 -103 -26 -102 -7 -257 36 -283 6 -4 7 -12 4 -18 -4 -7 -3 -9 1 -4 5 4 18 1 30 -7 22 -15 57 -21 165 -32 30 -2 75 -12 99 -21 63 -23 71 -49 70 -236 0 -154 -10 -205 -38 -199 -7 1 -10 -2 -7 -7 12 -19 -17 -31 -113 -46 -19 -3 -42 -10 -53 -16 -10 -5 -24 -7 -31 -3 -6 4 -9 4 -5 -1 4 -4 -12 -20 -35 -35 -23 -14 -54 -37 -68 -51 -32 -30 -117 -155 -98 -143 11 6 12 5 2 -7 -17 -21 -1 -77 37 -124 16 -21 27 -42 23 -48 -3 -6 -1 -7 5 -3 7 4 22 -11 38 -36 15 -24 31 -44 35 -46 5 -2 9 -10 9 -18 0 -8 4 -14 8 -14 4 0 9 -14 10 -30 3 -37 -24 -93 -40 -84 -6 4 -8 3 -5 -3 9 -14 -111 -135 -124 -127 -5 3 -8 0 -7 -8 2 -7 -2 -12 -9 -11 -7 2 -10 -3 -8 -10 7 -17 -55 -57 -98 -64 -26 -4 -46 1 -76 18 -23 12 -41 27 -41 31 0 5 -4 6 -10 3 -5 -3 -10 1 -10 10 0 9 -4 14 -9 11 -13 -8 -42 4 -36 15 3 4 -4 6 -15 4 -11 -2 -20 0 -20 4 0 4 -6 8 -12 8 -7 0 -35 4 -62 8 -27 4 -82 4 -123 0 -118 -11 -162 -62 -170 -195 -3 -41 -9 -83 -14 -92 -5 -9 -9 -27 -9 -40 0 -14 -13 -37 -31 -54 l-30 -29 -157 -3 c-103 -2 -169 1 -193 8 -39 13 -73 58 -75 100 -2 39 -14 80 -42 140 -14 30 -24 59 -23 65 1 5 0 7 -3 4 -9 -9 -83 64 -77 76 2 6 1 7 -3 3 -4 -3 -32 9 -61 28 -34 21 -60 31 -71 27 -13 -5 -15 -3 -9 7 10 16 -116 -50 -131 -69 -6 -8 -16 -11 -22 -7 -7 4 -10 2 -6 -7 5 -14 -61 -67 -83 -67 -6 0 -13 -5 -15 -11 -5 -15 -81 -14 -106 2 -17 11 -19 16 -9 28 10 12 9 13 -10 3 -18 -10 -23 -9 -28 6 -3 9 -21 28 -40 42 -19 14 -35 30 -35 37 0 7 -9 17 -19 22 -10 6 -37 34 -60 62 -51 64 -53 97 -9 165 63 99 87 144 77 144 -6 0 -6 6 0 18 14 26 20 103 10 130 -6 14 -5 21 0 17 6 -3 1 22 -11 55 -14 43 -31 69 -57 91 -37 32 -41 32 -183 43 -21 1 -41 5 -44 9 -4 4 -19 7 -34 7 -27 0 -79 41 -81 64 -8 65 -5 135 5 129 7 -5 7 -2 -1 8 -16 20 -14 186 3 220 16 32 61 63 94 64 46 2 88 16 148 48 123 66 192 157 192 252 0 25 -4 45 -10 45 -5 0 -6 7 -3 17 4 10 2 14 -5 9 -6 -3 -13 2 -16 12 -3 9 -21 33 -39 52 -89 95 -106 145 -72 210 19 38 99 120 116 120 5 0 8 4 5 9 -10 16 99 109 136 116 35 7 96 -12 128 -39 35 -31 117 -68 159 -73 93 -10 147 -9 173 4 15 7 30 13 33 13 3 0 9 0 14 0 21 0 81 71 82 97 1 16 3 37 4 48 2 11 5 37 7 57 1 21 7 38 12 38 4 0 6 7 2 15 -3 8 0 15 7 15 9 0 9 2 -1 8 -22 15 17 85 61 109 28 15 347 17 347 2z"/> <path d="M1468 2275 c-2 -2 -23 -5 -48 -8 -25 -3 -57 -8 -73 -12 -17 -5 -33 -2 -42 5 -13 11 -14 10 -10 -2 4 -11 -8 -19 -47 -32 -183 -58 -344 -194 -437 -371 -66 -124 -84 -196 -87 -350 -1 -77 1 -144 4 -150 3 -5 7 -16 8 -25 10 -63 27 -113 60 -173 8 -15 13 -31 10 -36 -3 -4 4 -17 15 -27 11 -10 29 -34 42 -53 12 -20 29 -45 39 -55 9 -10 15 -24 11 -29 -3 -6 -1 -7 4 -4 11 7 36 -16 28 -25 -3 -3 2 -11 12 -19 11 -9 14 -10 9 -1 -12 20 5 14 28 -11 29 -31 143 -106 173 -113 19 -5 22 -9 11 -15 -9 -7 -8 -8 7 -7 11 1 52 -8 90 -20 76 -25 118 -32 210 -36 61 -3 216 22 270 44 17 6 31 11 32 11 9 -1 93 42 98 49 4 6 10 8 15 5 4 -3 13 2 20 10 7 8 19 15 28 15 8 0 13 3 9 6 -11 11 36 41 60 38 13 -1 21 2 17 7 -3 5 -11 6 -17 3 -7 -4 6 12 28 36 22 24 47 51 55 60 8 10 26 30 40 45 13 15 25 33 26 40 1 8 15 33 31 57 15 24 30 54 32 68 2 14 9 36 16 50 12 25 21 58 32 122 11 66 3 244 -12 288 -8 23 -15 50 -15 59 0 9 -7 29 -15 45 -9 16 -13 37 -10 47 3 9 1 20 -4 24 -7 3 -9 -1 -6 -12 3 -10 0 -7 -7 7 -7 14 -16 30 -21 35 -4 6 -21 30 -37 56 -30 47 -130 165 -130 154 0 -4 -6 0 -13 7 -8 7 -37 29 -65 48 -28 19 -50 40 -47 47 2 7 -2 10 -11 6 -8 -3 -29 2 -47 10 -62 29 -172 64 -194 62 -13 -1 -23 1 -23 4 0 3 -21 7 -48 9 -26 2 -59 4 -74 6 -15 2 -29 2 -30 1z m112 -35 c232 -29 435 -155 559 -350 148 -231 158 -506 28 -755 -151 -288 -490 -454 -799 -390 -172 36 -283 97 -409 225 -233 237 -279 578 -120 885 45 87 190 236 275 284 88 49 180 82 271 96 104 17 97 17 195 5z"/> <path d="M1430 1886 c-36 -7 -87 -22 -114 -35 -64 -30 -143 -111 -181 -186 -28 -57 -30 -67 -30 -180 0 -118 1 -121 34 -183 111 -204 367 -280 558 -166 73 44 113 84 157 157 66 111 71 259 11 376 -54 107 -173 201 -275 215 -25 4 -56 9 -70 11 -14 2 -54 -2 -90 -9z m150 -29 c0 -5 9 -7 20 -4 23 6 113 -36 102 -48 -4 -5 -2 -5 4 -2 7 4 31 -13 55 -37 49 -48 99 -113 78 -101 -8 5 -6 -1 4 -12 10 -11 19 -29 21 -39 3 -11 9 -38 14 -60 7 -33 4 -107 -6 -139 -1 -3 -2 -14 -2 -26 0 -13 -4 -18 -12 -13 -10 5 -10 4 -1 -6 8 -9 5 -22 -15 -55 -14 -24 -30 -41 -36 -38 -5 3 -6 1 -2 -6 10 -16 -71 -94 -114 -111 -19 -8 -38 -18 -42 -24 -3 -5 -12 -11 -20 -12 -7 -1 -31 -6 -53 -10 -68 -13 -196 -3 -215 16 -3 3 -21 13 -40 24 -19 10 -48 32 -64 50 -16 17 -25 24 -21 16 5 -8 -4 -4 -19 10 -16 14 -25 32 -23 42 3 12 0 15 -11 11 -10 -4 -13 -2 -8 5 3 6 1 14 -4 17 -11 7 -30 46 -35 71 -2 6 -6 21 -9 32 -4 11 -2 23 4 27 5 3 10 12 10 18 0 8 -3 8 -9 -2 -5 -8 -9 4 -9 35 -1 35 1 45 8 34 5 -8 10 -10 10 -5 0 6 -4 16 -9 24 -5 8 -5 27 1 45 5 17 10 36 12 41 8 35 19 55 26 50 5 -3 12 0 16 6 4 8 3 9 -4 5 -24 -14 -11 10 26 50 41 44 104 94 124 98 7 2 25 8 40 14 15 6 35 9 43 6 8 -4 15 -2 15 3 0 5 34 9 75 9 41 0 75 -4 75 -9z"/> <path d="M1697 2259 c7 -7 15 -10 18 -7 3 3 -2 9 -12 12 -14 6 -15 5 -6 -5z"/> <path d="M2526 1807 c3 -10 9 -15 12 -12 3 3 0 11 -7 18 -10 9 -11 8 -5 -6z"/> </g> </svg> 
