<?xml version="1.0" standalone="no"?>
<!DOCTYPE svg PUBLIC "-//W3C//DTD SVG 20010904//EN" "http://www.w3.org/TR/2001/REC-SVG-20010904/DTD/svg10.dtd">
<svg version="1.0" xmlns="http://www.w3.org/2000/svg" width="346.000000pt" height="344.000000pt" viewBox="0 0 346.000000 344.000000" preserveAspectRatio="xMidYMid meet" style="marign:0;padding:0;background:url(https://i.ibb.co/Ng5BpFMB/imagedoc-darknoise.png),fixed">
 <title>Logo - Software Company Co., Ltd.</title>
 <g class="sc-app-icon" transform="translate(0.000000,344.000000) scale(0.100000,-0.100000)" stroke="none" style="background-color:hsl(0,0%,96%);padding:40px;border-radius:20px;margin:10px;position:absolute;inset:0;margin:auto">
  <path d="M1494 3381 c-68 -42 -83 -76 -103 -233 -9 -78 -23 -153 -31 -164 -35 -57 -158 -85 -278 -65 -79 14 -127 33 -198 82 -23 15 -60 35 -82 44 -38 16 -45 16 -90 1 -41 -14 -71 -39 -184 -154 -116 -118 -136 -143 -141 -177 -11 -67 2 -110 52 -172 119 -148 131 -168 131 -214 0 -58 -42 -131 -110 -192 -63 -57 -133 -91 -227 -110 -91 -19 -132 -42 -160 -93 -21 -36 -23 -51 -23 -227 0 -167 2 -192 20 -226 34 -68 91 -89 280 -107 126 -11 160 -42 181 -166 10 -62 10 -89 0 -147 -15 -81 -29 -116 -78 -182 -53 -75 -65 -119 -47 -178 12 -41 33 -68 142 -176 130 -131 166 -155 226 -155 52 0 76 12 171 87 122 95 135 103 181 103 48 0 140 -56 193 -116 47 -53 89 -143 102 -220 16 -87 30 -116 76 -151 l36 -28 186 -3 c102 -2 201 0 219 3 19 4 49 22 71 44 36 36 39 45 51 127 6 49 16 118 20 152 15 104 45 133 162 152 119 19 219 -6 337 -82 64 -41 81 -48 125 -48 68 0 88 14 233 159 131 131 149 162 140 237 -3 34 -18 60 -63 119 -138 177 -146 201 -101 285 58 111 178 193 321 221 75 14 117 38 150 82 19 26 21 44 24 215 2 103 1 201 -3 219 -8 43 -65 100 -112 111 -21 6 -89 16 -151 23 -69 8 -124 19 -141 30 -102 62 -100 329 3 464 59 78 73 162 37 220 -19 30 -191 208 -248 256 -37 31 -100 43 -151 29 -31 -8 -87 -47 -192 -133 -71 -58 -127 -63 -206 -17 -105 60 -174 166 -205 314 -15 69 -26 97 -47 119 -51 54 -65 57 -274 57 -172 0 -196 -2 -224 -19z m396 -805 c147 -27 314 -110 433 -216 92 -82 191 -233 232 -354 45 -132 58 -328 31 -458 -88 -415 -433 -698 -850 -698 -156 0 -269 27 -406 97 -521 266 -631 973 -215 1388 202 203 490 292 775 241z" fill="#3e4042"/>
  <path d="M1635 2176 c-5 -2 -30 -9 -55 -17 -123 -36 -250 -162 -291 -289 -19 -60 -19 -240 0 -300 35 -108 130 -217 234 -268 283 -140 615 32 669 346 29 168 -42 338 -187 447 -38 29 -50 36 -120 65 -28 12 -227 24 -250 16z" fill="#00a2e8" />
 </g>
</svg>
